<svg xmlns="http://www.w3.org/2000/svg" viewBox="0 0 4968 576"><defs><style>.cls-1{fill:#fff;}</style></defs><title>OUTDATED1.SVG</title><g id="Layer_2" data-name="Layer 2"><g id="Layer_1-2" data-name="Layer 1"><polygon class="cls-1" points="0 0 0 72 504 576 648 576 648 504 144 0 0 0"/><polygon class="cls-1" points="360 144 720 504 864 504 864 432 576 144 360 144"/><polygon class="cls-1" points="792 216 792 288 1008 504 1224 504 936 216 792 216"/><polygon class="cls-1" points="1008 144 1008 216 1296 504 1440 504 1440 432 1152 144 1008 144"/><polygon class="cls-1" points="1296 144 1296 216 1368 288 1512 288 1656 144 1296 144"/><polygon class="cls-1" points="1512 504 1512 360 1728 144 2016 144 2016 216 1944 288 1800 288 1584 504 1512 504"/><polygon class="cls-1" points="1728 504 1728 432 1800 360 1944 360 2160 144 2376 144 2016 504 1728 504"/><polygon class="cls-1" points="2160 504 2160 432 2592 0 2736 0 2736 72 2304 504 2160 504"/><polygon class="cls-1" points="2448 504 2448 432 2736 144 2880 144 2880 216 2808 288 2592 504 2448 504"/><polygon class="cls-1" points="2952 288 2808 288 2808 360 2952 504 3168 504 3168 432 3096 360 3024 360 2952 288"/><polygon class="cls-1" points="2952 144 2952 216 3024 288 3096 288 3312 504 3456 504 3456 432 3168 144 2952 144"/><polygon class="cls-1" points="3240 144 3384 288 3528 288 3600 216 3600 144 3240 144"/><polygon class="cls-1" points="3528 504 3528 360 3744 144 4248 144 4248 216 4176 288 3816 288 3600 504 3528 504"/><polygon class="cls-1" points="4032 360 3744 360 3888 504 3960 504 4032 432 4032 360"/><polygon class="cls-1" points="4104 504 4104 432 4392 144 4608 144 4248 504 4104 504"/><polygon class="cls-1" points="4320 576 4320 504 4824 0 4968 0 4968 72 4464 576 4320 576"/></g></g></svg>